<svg class="art-en" xmlns="http://www.w3.org/2000/svg" width="40" height="40" fill="none" viewBox="0 0 40 40">
   <circle cx="20" cy="20" r="15" stroke="rgb(46,166,76)"
stroke-width="2" fill="rgb(46,166,76)" opacity="0.8"/>
 <path transform="translate(10,10) scale(0.8,0.8)"  fill="#ffffff" d="M15.58,16.8L12,14.5L8.42,16.8L9.5,12.68L6.21,10L10.46,9.74L12,5.8L13.54,9.74L17.79,10L14.5,12.68M20,12C20,10.89 20.9,10 22,10V6C22,4.89 21.1,4 20,4H4A2,2 0 0,0 2,6V10C3.11,10 4,10.9 4,12A2,2 0 0,1 2,14V18A2,2 0 0,0 4,20H20A2,2 0 0,0 22,18V14A2,2 0 0,1 20,12Z" />
    <!-- <path stroke="black" fill="none" d="M0 0h24v24H0z"/> -->
</svg>