<svg xmlns="http://www.w3.org/2000/svg" width="40" height="40" fill="none" viewBox="0 0 40 40">
   <circle cx="20" cy="20" r="15" stroke="rgb(172,91,47)"
stroke-width="2" fill="rgb(172,91,47)" opacity="0.8"/>
 <path transform="translate(10,10) scale(0.8,0.8)"  fill="#ffffff" d="M10,2H14A2,2 0 0,1 16,4V6H20A2,2 0 0,1 22,8V19A2,2 0 0,1 20,21H4C2.89,21 2,20.1 2,19V8C2,6.89 2.89,6 4,6H8V4C8,2.89 8.89,2 10,2M14,6V4H10V6H14Z"  />
    <!-- <path stroke="black" fill="none" d="M0 0h24v24H0z"/> -->
</svg>